HIERARCHY
ROOT root
{
	OFFSET 0.000000 0.000000 0.000000
	CHANNELS 6 Xposition Yposition Zposition Zrotation Yrotation Xrotation
	JOINT lhip
	{
		OFFSET 0.058581 -0.082280 -0.017664
		CHANNELS 3 Zrotation Yrotation Xrotation
		JOINT lknee
		{
			OFFSET 0.043451 -0.386469 0.008037
			CHANNELS 3 Zrotation Yrotation Xrotation
			JOINT lankle
			{
				OFFSET -0.014790 -0.426874 -0.037428
				CHANNELS 3 Zrotation Yrotation Xrotation
				JOINT ltoe
				{
					OFFSET 0.041054 -0.060286 0.122042
					CHANNELS 3 Zrotation Yrotation Xrotation
					End Site
					{
						OFFSET 0.000000 0.000000 0.000000
					}
				}
			}
		}
	}
	JOINT rhip
	{
		OFFSET -0.060310 -0.090513 -0.013543
		CHANNELS 3 Zrotation Yrotation Xrotation
		JOINT rknee
		{
			OFFSET -0.043257 -0.383688 -0.004843
			CHANNELS 3 Zrotation Yrotation Xrotation
			JOINT rankle
			{
				OFFSET 0.019056 -0.420046 -0.034562
				CHANNELS 3 Zrotation Yrotation Xrotation
				JOINT rtoe
				{
					OFFSET -0.034840 -0.062106 0.130323
					CHANNELS 3 Zrotation Yrotation Xrotation
					End Site
					{
						OFFSET 0.000000 0.000000 0.000000
					}
				}
			}
		}
	}
	JOINT lowerback
	{
		OFFSET 0.004439 0.124404 -0.038385
		CHANNELS 3 Zrotation Yrotation Xrotation
		JOINT upperback
		{
			OFFSET 0.004488 0.137956 0.026820
			CHANNELS 3 Zrotation Yrotation Xrotation
			JOINT chest
			{
				OFFSET -0.002265 0.056032 0.002855
				CHANNELS 3 Zrotation Yrotation Xrotation
				JOINT lowerneck
				{
					OFFSET -0.013390 0.211636 -0.033468
					CHANNELS 3 Zrotation Yrotation Xrotation
					JOINT upperneck
					{
						OFFSET 0.010113 0.088937 0.050410
						CHANNELS 3 Zrotation Yrotation Xrotation
						End Site
						{
							OFFSET 0.000000 0.000000 0.000000
						}
					}
				}
				JOINT lclavicle
				{
					OFFSET 0.071702 0.114000 -0.018898
					CHANNELS 3 Zrotation Yrotation Xrotation
					JOINT lshoulder
					{
						OFFSET 0.122921 0.045205 -0.019046
						CHANNELS 3 Zrotation Yrotation Xrotation
						JOINT lelbow
						{
							OFFSET 0.255332 -0.015649 -0.022946
							CHANNELS 3 Zrotation Yrotation Xrotation
							JOINT lwrist
							{
								OFFSET 0.265709 0.012698 -0.007375
								CHANNELS 3 Zrotation Yrotation Xrotation
								End Site
								{
									OFFSET 0.000000 0.000000 0.000000
								}
							}
						}
					}
				}
				JOINT rclavicle
				{
					OFFSET -0.082954 0.112472 -0.023707
					CHANNELS 3 Zrotation Yrotation Xrotation
					JOINT rshoulder
					{
						OFFSET -0.113228 0.046853 -0.008472
						CHANNELS 3 Zrotation Yrotation Xrotation
						JOINT relbow
						{
							OFFSET -0.260127 -0.014369 -0.031269
							CHANNELS 3 Zrotation Yrotation Xrotation
							JOINT rwrist
							{
								OFFSET -0.269108 0.006794 -0.006027
								CHANNELS 3 Zrotation Yrotation Xrotation
								End Site
								{
									OFFSET 0.000000 0.000000 0.000000
								}
							}
						}
					}
				}
			}
		}
	}
}
MOTION
Frames: 5
Frame Time: 0.033333
0.633559 0.435295 0.749309 121.248454 -8.507319 101.669235 29.024772 17.897266 19.620588 -3.100172 -5.286170 12.851426 -9.520248 22.229796 -28.198462 0.000000 -0.000000 0.000000 -23.948966 -8.689145 -77.740527 5.892799 -2.559843 69.091120 10.951588 -7.933830 -3.292397 0.000000 -0.000000 0.000000 4.836926 -23.783760 46.780966 1.991912 -2.095195 -2.810745 3.516233 -3.535446 7.157608 -6.212762 -5.799517 29.349968 9.831011 -1.781690 -9.291776 40.556746 -24.834648 -28.024147 20.083886 -21.626879 -28.752796 1.160331 -25.830851 -14.414017 -19.986668 -10.563281 -5.883364 -43.115032 18.937527 -27.789203 -18.679098 22.329704 -29.189156 -11.706254 31.549794 -13.484899 14.994187 -1.966961 7.875739 
0.648129 0.429564 0.745519 120.547232 -8.383144 103.597451 28.632188 18.850010 19.726105 -2.652287 -6.055027 9.921286 -9.419877 23.333584 -27.818503 0.000000 -0.000000 0.000000 -23.583686 -8.725435 -80.185449 6.712896 -3.810016 70.605744 10.613214 -7.538633 -5.411016 0.000000 -0.000000 0.000000 5.200078 -24.659285 48.153028 1.866986 -1.156308 -4.336868 4.124778 -3.060284 7.690293 -6.949402 -4.934226 26.611264 9.127115 -1.160654 -9.794583 42.962303 -24.490314 -30.127512 20.261228 -21.659535 -29.299342 4.439201 -22.361684 -17.722789 -5.841299 -9.070352 -1.127893 -44.930430 18.957598 -30.369356 -19.695053 22.721378 -31.175417 -10.426901 29.026082 -14.992901 11.237496 -1.064738 7.303484 
0.661594 0.423891 0.739948 119.433618 -8.075536 105.376110 28.653231 19.748257 19.892548 -2.573252 -6.565263 7.918867 -9.167763 24.199705 -27.391985 0.000000 -0.000000 0.000000 -22.937662 -8.859758 -82.698772 7.619746 -5.286729 72.084725 10.249069 -6.708569 -7.797523 0.000000 -0.000000 0.000000 5.078839 -25.090621 49.280082 1.675508 -0.446694 -5.732178 4.521289 -2.639334 8.080122 -7.287113 -4.762996 24.530835 9.016323 -1.441670 -9.811128 44.684886 -22.928631 -31.347888 20.362876 -21.190739 -29.265848 6.849946 -22.128294 -20.838609 2.823853 -9.871336 0.747269 -46.546064 18.105858 -32.314007 -19.918762 23.532801 -31.553320 -8.886711 28.053720 -12.565837 15.318500 -2.828573 9.185682 
0.674443 0.418238 0.733917 118.114802 -7.275115 107.014145 28.838245 20.258619 19.915656 -2.169147 -6.455624 6.622671 -9.132969 25.075620 -27.219780 0.000000 -0.000000 0.000000 -22.202812 -8.735653 -85.048716 7.776807 -7.359823 73.467991 10.181165 -5.265208 -10.372724 0.000000 -0.000000 0.000000 4.691461 -25.138203 50.171773 1.675980 0.362348 -6.823766 4.902080 -2.250594 7.910703 -5.757402 -4.496676 23.572123 8.820620 -2.807428 -9.703983 45.054245 -21.172624 -31.305987 21.632709 -20.388980 -29.649750 7.695883 -23.181076 -22.356171 -0.712666 -10.450053 -1.238910 -46.660184 17.551782 -32.664776 -20.440815 25.114152 -32.301231 -8.745991 27.344251 -12.436731 16.427185 -2.612597 7.566237 
0.685578 0.413109 0.729119 116.483376 -5.962194 108.601523 28.662558 20.511609 19.723599 -1.137157 -5.486962 5.910065 -8.934778 26.352334 -27.099251 0.000000 -0.000000 0.000000 -21.323810 -7.964769 -87.222937 7.206601 -9.530120 74.442200 10.248086 -4.015924 -12.584418 0.000000 -0.000000 0.000000 4.439064 -24.899215 50.794584 1.711884 1.605982 -7.759856 5.347939 -1.534255 7.471301 -3.121180 -2.983433 22.718915 7.968316 -3.688889 -9.579058 45.443089 -20.112094 -31.333715 23.048349 -20.449885 -30.772635 6.857014 -20.178303 -22.780751 -10.832675 -10.496671 -3.585488 -46.213026 17.626292 -32.521516 -21.502455 27.104449 -33.961336 -10.033495 24.595825 -13.167123 16.417003 -2.288237 6.372598 
